<svg xmlns="http://www.w3.org/2000/svg" width="180" height="180" viewBox="0 0 180 180" fill="none">
  <!-- Background -->
  <rect width="180" height="180" rx="40" fill="#1B2A41"/>
  <!-- Steward Mark (centered and scaled) -->
  <g transform="translate(50, 32) scale(1.25)">
    <path d="M32 4L8 16v16c0 14.4 10.24 27.84 24 32 13.76-4.16 24-17.6 24-32V16L32 4z" fill="#FFFFFF"/>
    <path d="M32 14c-6.627 0-12 4.477-12 10 0 3.314 2.015 6.236 5.143 8L32 36l6.857-4c3.128-1.764 5.143-4.686 5.143-8 0-5.523-5.373-10-12-10z" fill="#2563EB"/>
    <path d="M32 50c6.627 0 12-4.477 12-10 0-3.314-2.015-6.236-5.143-8L32 28l-6.857 4c-3.128 1.764-5.143 4.686-5.143 8 0 5.523 5.373 10 12 10z" fill="#2563EB"/>
  </g>
</svg>

